Lexend-Regular.ufo
<glyph name="exclam" format="2">
  <advance width="236"/>
  <unicode hex="0021"/>
  <note>
exclam
</note>
  <outline>
    <contour>
      <point x="147" y="241" type="qcurve"/>
      <point x="87" y="241" type="line"/>
      <point x="76" y="335"/>
      <point x="63" y="542"/>
      <point x="63" y="630" type="qcurve"/>
      <point x="63" y="700" type="line"/>
      <point x="171" y="700" type="line"/>
      <point x="171" y="630" type="line" smooth="yes"/>
      <point x="171" y="537"/>
      <point x="158" y="328"/>
    </contour>
    <contour>
      <point x="183" y="64" type="qcurve" smooth="yes"/>
      <point x="183" y="31"/>
      <point x="145" y="-11"/>
      <point x="114" y="-11" type="qcurve" smooth="yes"/>
      <point x="81" y="-11"/>
      <point x="45" y="28"/>
      <point x="45" y="64" type="qcurve" smooth="yes"/>
      <point x="45" y="97"/>
      <point x="83" y="139"/>
      <point x="114" y="139" type="qcurve" smooth="yes"/>
      <point x="147" y="139"/>
      <point x="183" y="100"/>
    </contour>
  </outline>
</glyph>
<glyph name="dollar" format="2">
  <advance width="624"/>
  <unicode hex="0024"/>
  <note>
dollar
</note>
  <anchor x="321" y="0" name="bottom"/>
  <anchor x="321" y="700" name="top"/>
  <outline>
    <contour>
      <point x="254" y="363" type="line"/>
      <point x="351" y="330" type="line"/>
      <point x="351" y="-91" type="line"/>
      <point x="254" y="-91" type="line"/>
    </contour>
    <contour>
      <point x="391" y="330" type="line"/>
      <point x="294" y="363" type="line"/>
      <point x="294" y="782" type="line"/>
      <point x="391" y="782" type="line"/>
    </contour>
    <contour>
      <point x="50" y="126" type="qcurve"/>
      <point x="124" y="211" type="line"/>
      <point x="173" y="141"/>
      <point x="263" y="87"/>
      <point x="325" y="87" type="qcurve" smooth="yes"/>
      <point x="382" y="87"/>
      <point x="461" y="139"/>
      <point x="461" y="180" type="qcurve" smooth="yes"/>
      <point x="461" y="226"/>
      <point x="383" y="285"/>
      <point x="299" y="301" type="qcurve" smooth="yes"/>
      <point x="191" y="322"/>
      <point x="85" y="428"/>
      <point x="85" y="514" type="qcurve"/>
      <point x="85" y="599"/>
      <point x="224" y="710"/>
      <point x="326" y="710" type="qcurve"/>
      <point x="407" y="710"/>
      <point x="528" y="647"/>
      <point x="563" y="587" type="qcurve"/>
      <point x="487" y="512" type="line"/>
      <point x="457" y="561"/>
      <point x="374" y="613"/>
      <point x="323" y="613" type="qcurve"/>
      <point x="265" y="613"/>
      <point x="193" y="560"/>
      <point x="193" y="517" type="qcurve"/>
      <point x="193" y="474"/>
      <point x="258" y="421"/>
      <point x="337" y="405" type="qcurve" smooth="yes"/>
      <point x="447" y="382"/>
      <point x="569" y="280"/>
      <point x="569" y="208" type="qcurve" smooth="yes"/>
      <point x="569" y="108"/>
      <point x="432" y="-10"/>
      <point x="314" y="-10" type="qcurve" smooth="yes"/>
      <point x="228" y="-10"/>
      <point x="97" y="58"/>
    </contour>
  </outline>
</glyph>
<glyph name="one" format="2">
  <advance width="500"/>
  <unicode hex="0031"/>
  <outline>
    <contour>
      <point x="326" y="49" type="line"/>
      <point x="217" y="49" type="line"/>
      <point x="217" y="617" type="line"/>
      <point x="254" y="589" type="line"/>
      <point x="116" y="516" type="line"/>
      <point x="87" y="610" type="line"/>
      <point x="274" y="710" type="line"/>
      <point x="326" y="710" type="line"/>
    </contour>
    <contour>
      <point x="440" y="104" type="line"/>
      <point x="440" y="0" type="line"/>
      <point x="106" y="0" type="line"/>
      <point x="106" y="104" type="line"/>
    </contour>
  </outline>
</glyph>
<glyph name="less" format="2">
  <advance width="524"/>
  <unicode hex="003C"/>
  <note>
less
</note>
  <outline>
    <contour>
      <point x="98" y="218" type="line"/>
      <point x="98" y="285" type="line"/>
      <point x="457" y="79" type="line"/>
      <point x="409" y="4" type="line"/>
      <point x="48" y="211" type="line"/>
      <point x="48" y="292" type="line"/>
      <point x="409" y="499" type="line"/>
      <point x="457" y="424" type="line"/>
    </contour>
  </outline>
</glyph>
<glyph name="A" format="2">
  <advance width="700"/>
  <unicode hex="0041"/>
  <note>
A
</note>
  <outline>
    <contour>
      <point x="337" y="612" type="qcurve"/>
      <point x="360" y="613" type="line"/>
      <point x="348.3396428371435" y="579.9623213719068"/>
      <point x="306.3600226918955" y="448.9000567297387"/>
      <point x="294" y="418" type="qcurve"/>
      <point x="135" y="0" type="line"/>
      <point x="25" y="0" type="line"/>
      <point x="296" y="700" type="line"/>
      <point x="406" y="700" type="line"/>
      <point x="675" y="0" type="line"/>
      <point x="560" y="0" type="line"/>
      <point x="400" y="422" type="line" smooth="yes"/>
      <point x="389.6540331223202" y="451.3135728200927"/>
      <point x="348.9029518273771" y="578.6717348833442"/>
    </contour>
    <contour>
      <point x="354" y="174" type="line"/>
      <point x="145" y="174" type="line"/>
      <point x="185" y="278" type="line"/>
      <point x="354" y="278" type="line"/>
    </contour>
    <contour>
      <point x="549" y="174" type="line"/>
      <point x="354" y="174" type="line"/>
      <point x="354" y="278" type="line"/>
      <point x="503" y="278" type="line"/>
    </contour>
  </outline>
</glyph>
<glyph name="B" format="2">
  <advance width="681"/>
  <unicode hex="0042"/>
  <note>
B
</note>
  <outline>
    <contour>
      <point x="98" y="700" type="line"/>
      <point x="390" y="700" type="line"/>
      <point x="491" y="700"/>
      <point x="596" y="610"/>
      <point x="596" y="524" type="qcurve"/>
      <point x="596" y="452"/>
      <point x="497" y="364"/>
      <point x="411" y="363" type="qcurve"/>
      <point x="412" y="399" type="line"/>
      <point x="507" y="399"/>
      <point x="633" y="296"/>
      <point x="633" y="206" type="qcurve"/>
      <point x="633" y="106"/>
      <point x="510" y="0"/>
      <point x="400" y="0" type="qcurve"/>
      <point x="98" y="0" type="line"/>
    </contour>
    <contour>
      <point x="488" y="503" type="qcurve"/>
      <point x="488" y="548"/>
      <point x="428" y="596"/>
      <point x="372" y="596" type="qcurve"/>
      <point x="196" y="596" type="line"/>
      <point x="206" y="621" type="line"/>
      <point x="206" y="399" type="line"/>
      <point x="197" y="410" type="line"/>
      <point x="384" y="410" type="line"/>
      <point x="429" y="411"/>
      <point x="488" y="462"/>
    </contour>
    <contour>
      <point x="523" y="208" type="qcurve"/>
      <point x="523" y="255"/>
      <point x="450" y="306"/>
      <point x="389" y="306" type="qcurve"/>
      <point x="201" y="306" type="line"/>
      <point x="206" y="324" type="line"/>
      <point x="206" y="84" type="line"/>
      <point x="200" y="104" type="line"/>
      <point x="394" y="104" type="line"/>
      <point x="455" y="104"/>
      <point x="523" y="158"/>
    </contour>
  </outline>
</glyph>
<glyph name="C" format="2">
  <advance width="679"/>
  <unicode hex="0043"/>
  <note>
C
</note>
  <anchor x="377" y="0" name="bottom"/>
  <anchor x="372" y="700" name="top"/>
  <outline>
    <contour>
      <point x="576" y="174" type="qcurve"/>
      <point x="630" y="86" type="line"/>
      <point x="595" y="45"/>
      <point x="456" y="-10"/>
      <point x="382" y="-10" type="qcurve" smooth="yes"/>
      <point x="236" y="-10"/>
      <point x="48" y="191"/>
      <point x="48" y="350" type="qcurve" smooth="yes"/>
      <point x="48" y="500"/>
      <point x="248" y="706"/>
      <point x="391" y="706" type="qcurve" smooth="yes"/>
      <point x="467" y="706"/>
      <point x="606" y="638"/>
      <point x="643" y="585" type="qcurve"/>
      <point x="571" y="510" type="line"/>
      <point x="528" y="554"/>
      <point x="438" y="598"/>
      <point x="391" y="598" type="qcurve" smooth="yes"/>
      <point x="293" y="598"/>
      <point x="158" y="458"/>
      <point x="158" y="350" type="qcurve" smooth="yes"/>
      <point x="158" y="235"/>
      <point x="292" y="99"/>
      <point x="400" y="99" type="qcurve" smooth="yes"/>
      <point x="450" y="99"/>
      <point x="542" y="139"/>
    </contour>
  </outline>
</glyph>
<glyph name="D" format="2">
  <advance width="748"/>
  <unicode hex="0044"/>
  <note>
D
</note>
  <outline>
    <contour>
      <point x="98" y="700" type="line"/>
      <point x="372" y="700" type="line" smooth="yes"/>
      <point x="522" y="700"/>
      <point x="700" y="506"/>
      <point x="700" y="350" type="qcurve" smooth="yes"/>
      <point x="700" y="193"/>
      <point x="523" y="0"/>
      <point x="372" y="0" type="qcurve"/>
      <point x="98" y="0" type="line"/>
    </contour>
    <contour>
      <point x="203" y="104" type="line"/>
      <point x="367" y="104" type="line" smooth="yes"/>
      <point x="473" y="104"/>
      <point x="590" y="235"/>
      <point x="590" y="350" type="qcurve" smooth="yes"/>
      <point x="590" y="464"/>
      <point x="472" y="596"/>
      <point x="367" y="596" type="qcurve"/>
      <point x="200" y="596" type="line"/>
      <point x="206" y="605" type="line"/>
      <point x="206" y="93" type="line"/>
    </contour>
  </outline>
</glyph>
<glyph name="E" format="2">
  <advance width="614"/>
  <unicode hex="0045"/>
  <note>
E
</note>
  <outline>
    <contour>
      <point x="206" y="0" type="line"/>
      <point x="98" y="0" type="line"/>
      <point x="98" y="700" type="line"/>
      <point x="206" y="700" type="line"/>
    </contour>
    <contour>
      <point x="539" y="0" type="line"/>
      <point x="147" y="0" type="line"/>
      <point x="147" y="104" type="line"/>
      <point x="539" y="104" type="line"/>
    </contour>
    <contour>
      <point x="484" y="307" type="line"/>
      <point x="147" y="307" type="line"/>
      <point x="147" y="411" type="line"/>
      <point x="484" y="411" type="line"/>
    </contour>
    <contour>
      <point x="539" y="596" type="line"/>
      <point x="147" y="596" type="line"/>
      <point x="147" y="700" type="line"/>
      <point x="539" y="700" type="line"/>
    </contour>
  </outline>
</glyph>
<glyph name="G" format="2">
  <advance width="766"/>
  <unicode hex="0047"/>
  <note>
G
</note>
  <outline>
    <contour>
      <point x="48" y="350" type="qcurve"/>
      <point x="48" y="501"/>
      <point x="257" y="706"/>
      <point x="410" y="706" type="qcurve" smooth="yes"/>
      <point x="490" y="706"/>
      <point x="633" y="640"/>
      <point x="672" y="587" type="qcurve"/>
      <point x="602" y="514" type="line"/>
      <point x="557" y="557"/>
      <point x="460" y="601"/>
      <point x="410" y="601" type="qcurve" smooth="yes"/>
      <point x="303" y="601"/>
      <point x="158" y="457"/>
      <point x="158" y="350" type="qcurve"/>
      <point x="158" y="245"/>
      <point x="309" y="95"/>
      <point x="414" y="95" type="qcurve" smooth="yes"/>
      <point x="493" y="95"/>
      <point x="607.0" y="183.0"/>
      <point x="607" y="246" type="qcurve" smooth="yes"/>
      <point x="607" y="266" type="line"/>
      <point x="622" y="252" type="line"/>
      <point x="408" y="252" type="line"/>
      <point x="408" y="359" type="line"/>
      <point x="718" y="359" type="line"/>
      <point x="721" y="342"/>
      <point x="723" y="313"/>
      <point x="723" y="299" type="qcurve" smooth="yes"/>
      <point x="723.0" y="161.1964338740046"/>
      <point x="542.1522811407426" y="-10.0"/>
      <point x="411" y="-10" type="qcurve"/>
      <point x="258" y="-10"/>
      <point x="48" y="198"/>
    </contour>
  </outline>
</glyph>
<glyph name="H" format="2">
  <advance width="761"/>
  <unicode hex="0048"/>
  <note>
H
</note>
  <outline>
    <contour>
      <point x="98" y="700" type="line"/>
      <point x="206" y="700" type="line"/>
      <point x="206" y="0" type="line"/>
      <point x="98" y="0" type="line"/>
    </contour>
    <contour>
      <point x="555" y="700" type="line"/>
      <point x="663" y="700" type="line"/>
      <point x="663" y="0" type="line"/>
      <point x="555" y="0" type="line"/>
    </contour>
    <contour>
      <point x="145" y="297" type="line"/>
      <point x="145" y="401" type="line"/>
      <point x="603" y="401" type="line"/>
      <point x="603" y="297" type="line"/>
    </contour>
  </outline>
</glyph>
<glyph name="L" format="2">
  <advance width="599"/>
  <unicode hex="004C"/>
  <note>
L
</note>
  <outline>
    <contour>
      <point x="178" y="104" type="line"/>
      <point x="534" y="104" type="line"/>
      <point x="534" y="0" type="line"/>
      <point x="98" y="0" type="line"/>
      <point x="98" y="700" type="line"/>
      <point x="206" y="700" type="line"/>
      <point x="206" y="78" type="line"/>
    </contour>
  </outline>
</glyph>
<glyph name="M" format="2">
  <advance width="864"/>
  <unicode hex="004D"/>
  <note>
M
</note>
  <anchor x="433" y="0" name="bottom"/>
  <anchor x="433" y="700" name="top"/>
  <outline>
    <contour>
      <point x="98" y="700" type="line"/>
      <point x="204" y="700" type="line"/>
      <point x="459" y="285" type="line"/>
      <point x="408" y="286" type="line"/>
      <point x="666" y="700" type="line"/>
      <point x="766" y="700" type="line"/>
      <point x="766" y="0" type="line"/>
      <point x="658" y="0" type="line"/>
      <point x="658" y="287" type="line" smooth="yes"/>
      <point x="658" y="377"/>
      <point x="667" y="521"/>
      <point x="678" y="592" type="qcurve"/>
      <point x="692" y="555" type="line"/>
      <point x="463" y="201" type="line"/>
      <point x="397" y="201" type="line"/>
      <point x="175" y="551" type="line"/>
      <point x="186" y="592" type="line"/>
      <point x="197" y="525"/>
      <point x="206" y="384"/>
      <point x="206" y="287" type="qcurve"/>
      <point x="206" y="0" type="line"/>
      <point x="179" y="0"/>
      <point x="125" y="0"/>
      <point x="98" y="0" type="qcurve"/>
    </contour>
  </outline>
</glyph>
<glyph name="P" format="2">
  <advance width="634"/>
  <unicode hex="0050"/>
  <note>
P
</note>
  <anchor x="321" y="0" name="bottom"/>
  <anchor x="321" y="700" name="top"/>
  <outline>
    <contour>
      <point x="98" y="700" type="line"/>
      <point x="383" y="700" type="line" smooth="yes"/>
      <point x="468" y="700"/>
      <point x="589" y="575"/>
      <point x="589" y="485" type="qcurve" smooth="yes"/>
      <point x="589" y="395"/>
      <point x="468" y="268"/>
      <point x="383" y="268" type="qcurve"/>
      <point x="198" y="268" type="line"/>
      <point x="206" y="282" type="line"/>
      <point x="206" y="0" type="line"/>
      <point x="98" y="0" type="line"/>
    </contour>
    <contour>
      <point x="197" y="372" type="line"/>
      <point x="381" y="372" type="line" smooth="yes"/>
      <point x="421" y="372"/>
      <point x="479" y="439"/>
      <point x="479" y="485" type="qcurve" smooth="yes"/>
      <point x="479" y="531"/>
      <point x="421" y="596"/>
      <point x="381" y="596" type="qcurve"/>
      <point x="197" y="596" type="line"/>
      <point x="206" y="611" type="line"/>
      <point x="206" y="358" type="line"/>
    </contour>
  </outline>
</glyph>
<glyph name="Q" format="2">
  <advance width="782"/>
  <unicode hex="0051"/>
  <note>
Q
</note>
  <outline>
    <contour>
      <point x="391" y="710" type="qcurve"/>
      <point x="539" y="710"/>
      <point x="734" y="504"/>
      <point x="734" y="350" type="qcurve"/>
      <point x="734" y="196"/>
      <point x="539" y="-10"/>
      <point x="391" y="-10" type="qcurve"/>
      <point x="243" y="-10"/>
      <point x="48" y="195"/>
      <point x="48" y="350" type="qcurve"/>
      <point x="48" y="505"/>
      <point x="243" y="710"/>
    </contour>
    <contour>
      <point x="391" y="95" type="qcurve" smooth="yes"/>
      <point x="492" y="95"/>
      <point x="624" y="240"/>
      <point x="624" y="350" type="qcurve"/>
      <point x="624" y="460"/>
      <point x="492" y="605"/>
      <point x="391" y="605" type="qcurve" smooth="yes"/>
      <point x="289" y="605"/>
      <point x="158" y="461"/>
      <point x="158" y="350" type="qcurve"/>
      <point x="158" y="239"/>
      <point x="289" y="95"/>
    </contour>
    <contour>
      <point x="437" y="296" type="line"/>
      <point x="699" y="-48" type="line"/>
      <point x="613" y="-110" type="line"/>
      <point x="348" y="237" type="line"/>
    </contour>
  </outline>
</glyph>
<glyph name="T" format="2">
  <advance width="576"/>
  <unicode hex="0054"/>
  <note>
T
</note>
  <outline>
    <contour>
      <point x="339" y="0" type="line"/>
      <point x="231" y="0" type="line"/>
      <point x="231" y="651" type="line"/>
      <point x="339" y="651" type="line"/>
    </contour>
    <contour>
      <point x="541" y="596" type="line"/>
      <point x="35" y="596" type="line"/>
      <point x="35" y="700" type="line"/>
      <point x="541" y="700" type="line"/>
    </contour>
  </outline>
</glyph>
<glyph name="U" format="2">
  <advance width="740"/>
  <unicode hex="0055"/>
  <note>
U
</note>
  <anchor x="370" y="0" name="bottom"/>
  <anchor x="653" y="10" name="ogonek"/>
  <anchor x="370" y="700" name="top"/>
  <anchor x="512" y="708" name="topright"/>
  <outline>
    <contour>
      <point x="549" y="701" type="line"/>
      <point x="652" y="701" type="line"/>
      <point x="652" y="269" type="line"/>
      <point x="652" y="150"/>
      <point x="492" y="-6"/>
      <point x="370" y="-6" type="qcurve"/>
      <point x="248" y="-6"/>
      <point x="88" y="150"/>
      <point x="88" y="269" type="qcurve"/>
      <point x="88" y="701" type="line"/>
      <point x="196" y="701" type="line"/>
      <point x="196" y="278" type="line"/>
      <point x="196" y="202"/>
      <point x="299" y="98"/>
      <point x="370" y="98" type="qcurve"/>
      <point x="445" y="98"/>
      <point x="549" y="202"/>
      <point x="549" y="278" type="qcurve"/>
    </contour>
  </outline>
</glyph>
<glyph name="X" format="2">
  <advance width="685"/>
  <unicode hex="0058"/>
  <note>
X
</note>
  <outline>
    <contour>
      <point x="524" y="700" type="line"/>
      <point x="651" y="700" type="line"/>
      <point x="394" y="325" type="line"/>
      <point x="328" y="401" type="line"/>
    </contour>
    <contour>
      <point x="29" y="700" type="line"/>
      <point x="166" y="700" type="line"/>
      <point x="378" y="390" type="line"/>
      <point x="661" y="0" type="line"/>
      <point x="524" y="0" type="line"/>
      <point x="307" y="314" type="line"/>
    </contour>
    <contour>
      <point x="151" y="0" type="line"/>
      <point x="24" y="0" type="line"/>
      <point x="291" y="381" type="line"/>
      <point x="358" y="302" type="line"/>
    </contour>
  </outline>
</glyph>
<glyph name="Z" format="2">
  <advance width="659"/>
  <unicode hex="005A"/>
  <note>
Z
</note>
  <anchor x="330" y="0" name="bottom"/>
  <anchor x="330" y="700" name="top"/>
  <outline>
    <contour>
      <point x="86" y="700" type="line"/>
      <point x="593" y="700" type="line"/>
      <point x="593" y="622" type="line"/>
      <point x="196" y="87" type="line"/>
      <point x="180" y="104" type="line"/>
      <point x="604" y="104" type="line"/>
      <point x="604" y="0" type="line"/>
      <point x="60" y="0" type="line"/>
      <point x="60" y="79" type="line"/>
      <point x="459" y="613" type="line"/>
      <point x="474" y="596" type="line"/>
      <point x="86" y="596" type="line"/>
    </contour>
  </outline>
</glyph>
<glyph name="c" format="2">
  <advance width="535"/>
  <unicode hex="0063"/>
  <note>
c
</note>
  <outline>
    <contour>
      <point x="305" y="443" type="qcurve" smooth="yes"/>
      <point x="233" y="443"/>
      <point x="138" y="340"/>
      <point x="138" y="263" type="qcurve" smooth="yes"/>
      <point x="138" y="187"/>
      <point x="237" y="83"/>
      <point x="306" y="83" type="qcurve"/>
      <point x="346" y="83"/>
      <point x="421" y="124"/>
      <point x="453" y="163" type="qcurve"/>
      <point x="510" y="93" type="line"/>
      <point x="478" y="48"/>
      <point x="359" y="-10"/>
      <point x="295" y="-10" type="qcurve"/>
      <point x="186" y="-10"/>
      <point x="40" y="147"/>
      <point x="40" y="263" type="qcurve" smooth="yes"/>
      <point x="40" y="379"/>
      <point x="186" y="536"/>
      <point x="295" y="536" type="qcurve"/>
      <point x="365" y="536"/>
      <point x="480" y="479"/>
      <point x="510" y="430" type="qcurve"/>
      <point x="453" y="360" type="line"/>
      <point x="429" y="395"/>
      <point x="344" y="443"/>
    </contour>
  </outline>
</glyph>
<glyph name="h" format="2">
  <advance width="595"/>
  <unicode hex="0068"/>
  <note>
h
</note>
  <anchor x="292" y="0" name="bottom"/>
  <anchor x="122" y="593" name="center"/>
  <anchor x="121" y="729" name="top"/>
  <outline>
    <contour>
      <point x="172" y="457"/>
      <point x="284" y="536"/>
      <point x="347" y="536" type="qcurve"/>
      <point x="437" y="536"/>
      <point x="527" y="429"/>
      <point x="527" y="320" type="qcurve"/>
      <point x="527" y="0" type="line"/>
      <point x="424" y="0" type="line"/>
      <point x="424" y="313" type="line"/>
      <point x="424" y="381"/>
      <point x="369" y="445"/>
      <point x="313" y="442" type="qcurve"/>
      <point x="254" y="442"/>
      <point x="175" y="370"/>
      <point x="175" y="318" type="qcurve"/>
      <point x="175" y="0" type="line"/>
      <point x="149" y="0"/>
      <point x="98" y="0"/>
      <point x="72" y="0" type="qcurve"/>
      <point x="72" y="740" type="line"/>
      <point x="175" y="740" type="line"/>
      <point x="175" y="417" type="line"/>
      <point x="157" y="405" type="line"/>
    </contour>
  </outline>
</glyph>
<glyph name="k" format="2">
  <advance width="570"/>
  <unicode hex="006B"/>
  <note>
k
</note>
  <outline>
    <contour>
      <point x="177" y="0" type="line"/>
      <point x="74" y="0" type="line"/>
      <point x="74" y="740" type="line"/>
      <point x="177" y="740" type="line"/>
    </contour>
    <contour>
      <point x="414" y="525" type="line"/>
      <point x="553" y="525" type="line"/>
      <point x="168" y="164" type="line"/>
      <point x="163" y="276" type="line"/>
    </contour>
    <contour>
      <point x="560" y="0" type="line"/>
      <point x="428" y="0" type="line"/>
      <point x="230" y="231" type="line"/>
      <point x="303" y="298" type="line"/>
    </contour>
  </outline>
</glyph>
<glyph name="o" format="2">
  <advance width="615"/>
  <unicode hex="006F"/>
  <note>
o
</note>
  <anchor x="305" y="0" name="bottom"/>
  <anchor x="305" y="256" name="center"/>
  <anchor x="547" y="10" name="ogonek"/>
  <anchor x="305" y="513" name="top"/>
  <anchor x="319" y="531" name="topright"/>
  <outline>
    <contour>
      <point x="308" y="536" type="qcurve"/>
      <point x="422" y="536"/>
      <point x="575" y="381"/>
      <point x="575" y="263" type="qcurve"/>
      <point x="575" y="145"/>
      <point x="422" y="-10"/>
      <point x="308" y="-10" type="qcurve"/>
      <point x="193" y="-10"/>
      <point x="40" y="145"/>
      <point x="40" y="263" type="qcurve"/>
      <point x="40" y="381"/>
      <point x="193" y="536"/>
    </contour>
    <contour>
      <point x="308" y="84" type="qcurve"/>
      <point x="379" y="84"/>
      <point x="470" y="182"/>
      <point x="470" y="263" type="qcurve"/>
      <point x="470" y="339"/>
      <point x="379" y="442"/>
      <point x="308" y="442" type="qcurve"/>
      <point x="237" y="442"/>
      <point x="145" y="339"/>
      <point x="145" y="263" type="qcurve"/>
      <point x="145" y="185"/>
      <point x="237" y="84"/>
    </contour>
  </outline>
</glyph>
<glyph name="r" format="2">
  <advance width="403"/>
  <unicode hex="0072"/>
  <note>
r
</note>
  <outline>
    <contour>
      <point x="393" y="526" type="qcurve"/>
      <point x="366" y="414" type="line"/>
      <point x="354" y="419"/>
      <point x="325" y="426"/>
      <point x="311" y="426" type="qcurve" smooth="yes"/>
      <point x="257" y="426"/>
      <point x="176" y="347"/>
      <point x="176" y="290" type="qcurve"/>
      <point x="176" y="0" type="line"/>
      <point x="72" y="0" type="line"/>
      <point x="72" y="525" type="line"/>
      <point x="176" y="525" type="line"/>
      <point x="176" y="360" type="line"/>
      <point x="166" y="400" type="line"/>
      <point x="183" y="457"/>
      <point x="281" y="536"/>
      <point x="336" y="536" type="qcurve"/>
      <point x="353" y="536"/>
      <point x="384" y="530"/>
    </contour>
  </outline>
</glyph>
<glyph name="u" format="2">
  <advance width="605"/>
  <unicode hex="0075"/>
  <note>
u
</note>
  <anchor x="299" y="0" name="bottom"/>
  <anchor x="530" y="0" name="ogonek"/>
  <anchor x="299" y="525" name="top"/>
  <anchor x="386" y="532" name="topright"/>
  <outline>
    <contour>
      <point x="298" y="80" type="qcurve"/>
      <point x="355" y="80"/>
      <point x="430" y="152"/>
      <point x="430" y="209" type="qcurve"/>
      <point x="430" y="525" type="line"/>
      <point x="533" y="525" type="line"/>
      <point x="533" y="0" type="line"/>
      <point x="430" y="0" type="line"/>
      <point x="430" y="110" type="line"/>
      <point x="448" y="122" type="line"/>
      <point x="430" y="66"/>
      <point x="323" y="-10"/>
      <point x="256" y="-10" type="qcurve"/>
      <point x="172" y="-10"/>
      <point x="72" y="104"/>
      <point x="72" y="201" type="qcurve"/>
      <point x="72" y="525" type="line"/>
      <point x="175" y="525" type="line"/>
      <point x="175" y="229" type="line"/>
      <point x="175" y="160"/>
      <point x="240" y="80"/>
    </contour>
  </outline>
</glyph>
<glyph name="x" format="2">
  <advance width="562"/>
  <unicode hex="0078"/>
  <note>
x
</note>
  <outline>
    <contour>
      <point x="15" y="525" type="line"/>
      <point x="145" y="525" type="line"/>
      <point x="312" y="307" type="line"/>
      <point x="329" y="285" type="line"/>
      <point x="547" y="0" type="line"/>
      <point x="421" y="0" type="line"/>
      <point x="251" y="221" type="line"/>
      <point x="236" y="240" type="line"/>
    </contour>
    <contour>
      <point x="137" y="-1" type="line"/>
      <point x="16" y="0" type="line"/>
      <point x="223" y="270" type="line"/>
      <point x="279" y="190" type="line"/>
    </contour>
    <contour>
      <point x="407" y="525" type="line"/>
      <point x="529" y="525" type="line"/>
      <point x="335" y="254" type="line"/>
      <point x="278" y="326" type="line"/>
    </contour>
  </outline>
</glyph>
<glyph name="paragraph" format="2">
  <advance width="712"/>
  <unicode hex="00B6"/>
  <note>
paragraph
</note>
  <outline>
    <contour>
      <point x="614" y="0" type="line"/>
      <point x="506" y="0" type="line"/>
      <point x="506" y="660" type="line"/>
      <point x="522" y="596" type="line"/>
      <point x="310" y="596" type="line"/>
      <point x="354" y="652" type="line"/>
      <point x="354" y="0" type="line"/>
      <point x="246" y="0" type="line"/>
      <point x="246" y="314" type="line"/>
      <point x="270" y="279" type="line"/>
      <point x="236" y="279" type="line" smooth="yes"/>
      <point x="155" y="279"/>
      <point x="48" y="396"/>
      <point x="48" y="486" type="qcurve" smooth="yes"/>
      <point x="48" y="583"/>
      <point x="171" y="700"/>
      <point x="273" y="700" type="qcurve"/>
      <point x="614" y="700" type="line"/>
    </contour>
  </outline>
</glyph>
<glyph name="cedilla" format="2">
  <advance width="267"/>
  <unicode hex="00B8"/>
  <anchor x="141" y="0" name="_bottom"/>
  <outline>
    <contour>
      <point x="100" y="-97" type="line"/>
      <point x="42" y="-90" type="line"/>
      <point x="114" y="24" type="line"/>
      <point x="173" y="24" type="line"/>
    </contour>
    <contour>
      <point x="165" y="-49"/>
      <point x="230" y="-99"/>
      <point x="230" y="-139" type="qcurve" smooth="yes"/>
      <point x="230" y="-162"/>
      <point x="190" y="-210"/>
      <point x="156" y="-225" type="qcurve" smooth="yes"/>
      <point x="132" y="-235"/>
      <point x="73" y="-245"/>
      <point x="40" y="-244" type="qcurve"/>
      <point x="33" y="-191" type="line"/>
      <point x="69" y="-191"/>
      <point x="145" y="-157"/>
      <point x="145" y="-138" type="qcurve" smooth="yes"/>
      <point x="145" y="-124"/>
      <point x="94" y="-101"/>
      <point x="55" y="-100" type="qcurve"/>
      <point x="42" y="-92" type="line"/>
      <point x="42" y="-90" type="line"/>
      <point x="101" y="-41" type="line"/>
    </contour>
  </outline>
</glyph>
<glyph name="Oslash" format="2">
  <advance width="770"/>
  <unicode hex="00D8"/>
  <note>
Oslash
</note>
  <anchor x="368" y="0" name="bottom"/>
  <anchor x="368" y="700" name="top"/>
  <anchor x="387" y="350" name="center"/>
  <anchor x="691" y="10" name="ogonek"/>
  <anchor x="26" y="700" name="topleft"/>
  <anchor x="388" y="706" name="topright"/>
  <outline>
    <contour>
      <point x="123" y="-33" type="line"/>
      <point x="60" y="20" type="line"/>
      <point x="649" y="741" type="line"/>
      <point x="717" y="694" type="line"/>
    </contour>
    <component base="O" xOffset="1"/>
  </outline>
</glyph>
<glyph name="ae" format="2">
  <advance width="899"/>
  <unicode hex="00E6"/>
  <note>
ae
</note>
  <anchor x="410" y="0" name="bottom"/>
  <anchor x="452" y="515" name="top"/>
  <outline>
    <contour>
      <point x="94" y="484"/>
      <point x="202" y="536"/>
      <point x="264" y="536" type="qcurve"/>
      <point x="357" y="536"/>
      <point x="466" y="459"/>
      <point x="466" y="388" type="qcurve"/>
      <point x="466" y="263" type="line"/>
      <point x="373" y="257" type="line"/>
      <point x="373" y="356" type="line"/>
      <point x="373" y="393"/>
      <point x="306" y="441"/>
      <point x="262" y="441" type="qcurve"/>
      <point x="218" y="441"/>
      <point x="147" y="405"/>
      <point x="118" y="368" type="qcurve"/>
      <point x="51" y="435" type="line"/>
    </contour>
    <contour>
      <point x="466" y="264" type="qcurve"/>
      <point x="466" y="185"/>
      <point x="574" y="84"/>
      <point x="654" y="84" type="qcurve" smooth="yes"/>
      <point x="693" y="84"/>
      <point x="760" y="110"/>
      <point x="799" y="144" type="qcurve"/>
      <point x="849" y="69" type="line"/>
      <point x="813" y="34"/>
      <point x="699" y="-10"/>
      <point x="644" y="-10" type="qcurve" smooth="yes"/>
      <point x="523" y="-10"/>
      <point x="373" y="138"/>
      <point x="373" y="257" type="qcurve"/>
      <point x="373" y="379"/>
      <point x="516" y="536"/>
      <point x="621" y="536" type="qcurve" smooth="yes"/>
      <point x="723" y="535"/>
      <point x="859" y="391"/>
      <point x="859" y="281" type="qcurve"/>
      <point x="858" y="237" type="line"/>
      <point x="261" y="237" type="line" smooth="yes"/>
      <point x="200" y="237"/>
      <point x="135" y="192"/>
      <point x="135" y="151" type="qcurve"/>
      <point x="135" y="118"/>
      <point x="183" y="78"/>
      <point x="220" y="78" type="qcurve"/>
      <point x="274" y="78"/>
      <point x="365" y="133"/>
      <point x="386" y="174" type="qcurve"/>
      <point x="430" y="107" type="line"/>
      <point x="395" y="55"/>
      <point x="280" y="-10"/>
      <point x="216" y="-10" type="qcurve"/>
      <point x="140" y="-10"/>
      <point x="38" y="77"/>
      <point x="38" y="149" type="qcurve"/>
      <point x="38" y="233"/>
      <point x="158" y="320"/>
      <point x="274" y="319" type="qcurve"/>
      <point x="769" y="319" type="line"/>
      <point x="754" y="302" type="line"/>
      <point x="754" y="326" type="line"/>
      <point x="749" y="375"/>
      <point x="672" y="441"/>
      <point x="621" y="441" type="qcurve"/>
      <point x="546" y="441"/>
      <point x="466" y="351"/>
    </contour>
  </outline>
</glyph>
<glyph name="oslash" format="2">
  <advance width="615"/>
  <unicode hex="00F8"/>
  <note>
oslash
</note>
  <anchor x="305" y="530" name="top"/>
  <anchor x="305" y="0" name="bottom"/>
  <anchor x="305" y="256" name="center"/>
  <anchor x="547" y="10" name="ogonek"/>
  <anchor x="319" y="531" name="topright"/>
  <outline>
    <contour>
      <point x="107" y="-35" type="line"/>
      <point x="41" y="13" type="line"/>
      <point x="494" y="545" type="line"/>
      <point x="561" y="496" type="line"/>
    </contour>
    <contour>
      <point x="308" y="536" type="qcurve"/>
      <point x="422" y="536"/>
      <point x="575" y="381"/>
      <point x="575" y="263" type="qcurve"/>
      <point x="575" y="145"/>
      <point x="422" y="-10"/>
      <point x="308" y="-10" type="qcurve"/>
      <point x="193" y="-10"/>
      <point x="40" y="145"/>
      <point x="40" y="263" type="qcurve"/>
      <point x="40" y="381"/>
      <point x="193" y="536"/>
    </contour>
    <contour>
      <point x="308" y="84" type="qcurve"/>
      <point x="379" y="84"/>
      <point x="471" y="186"/>
      <point x="470" y="263" type="qcurve"/>
      <point x="471" y="341"/>
      <point x="379" y="442"/>
      <point x="308" y="442" type="qcurve"/>
      <point x="237" y="442"/>
      <point x="144" y="340"/>
      <point x="145" y="263" type="qcurve"/>
      <point x="144" y="186"/>
      <point x="237" y="84"/>
    </contour>
  </outline>
</glyph>
<glyph name="eogonek" format="2">
  <advance width="586"/>
  <unicode hex="0119"/>
  <note>
eogonek
</note>
  <outline>
    <contour>
      <point x="453" y="70" type="qcurve"/>
      <point x="493" y="95" type="line"/>
      <point x="475" y="63"/>
      <point x="356" y="-10"/>
      <point x="317" y="-10" type="qcurve"/>
      <point x="195" y="-10"/>
      <point x="40" y="140"/>
      <point x="40" y="257" type="qcurve"/>
      <point x="40" y="381"/>
      <point x="191" y="536"/>
      <point x="308" y="537" type="qcurve"/>
      <point x="410" y="536"/>
      <point x="546" y="392"/>
      <point x="546" y="282" type="qcurve"/>
      <point x="545" y="238" type="line"/>
      <point x="116" y="238" type="line"/>
      <point x="93" y="320" type="line"/>
      <point x="456" y="320" type="line"/>
      <point x="441" y="303" type="line"/>
      <point x="441" y="327" type="line"/>
      <point x="436" y="376"/>
      <point x="359" y="442"/>
      <point x="308" y="442" type="qcurve"/>
      <point x="227" y="442"/>
      <point x="142" y="351"/>
      <point x="142" y="264" type="qcurve"/>
      <point x="142" y="182"/>
      <point x="244" y="84"/>
      <point x="327" y="84" type="qcurve"/>
      <point x="366" y="84"/>
      <point x="433" y="110"/>
      <point x="472" y="144" type="qcurve"/>
      <point x="523" y="69" type="line"/>
      <point x="513" y="61"/>
      <point x="449" y="15"/>
      <point x="433" y="2" type="qcurve" smooth="yes"/>
      <point x="403" y="-24"/>
      <point x="376" y="-67"/>
      <point x="376" y="-90" type="qcurve" smooth="yes"/>
      <point x="376" y="-112"/>
      <point x="404" y="-144"/>
      <point x="425" y="-144" type="qcurve" smooth="yes"/>
      <point x="438" y="-144"/>
      <point x="471" y="-130"/>
      <point x="488" y="-118" type="qcurve"/>
      <point x="527" y="-177" type="line"/>
      <point x="494" y="-199"/>
      <point x="433" y="-221"/>
      <point x="403" y="-221" type="qcurve" smooth="yes"/>
      <point x="348" y="-221"/>
      <point x="283" y="-161"/>
      <point x="283" y="-108" type="qcurve" smooth="yes"/>
      <point x="283" y="-69"/>
      <point x="350" y="7"/>
    </contour>
  </outline>
</glyph>
<glyph name="Hbar" format="2">
  <advance width="857"/>
  <unicode hex="0126"/>
  <note>
Hbar
</note>
  <outline>
    <contour>
      <point x="163" y="468" type="line"/>
      <point x="57" y="468" type="line"/>
      <point x="57" y="572" type="line"/>
      <point x="173" y="572" type="line"/>
      <point x="219" y="562" type="line"/>
      <point x="613" y="562" type="line"/>
      <point x="649" y="572" type="line"/>
      <point x="800" y="572" type="line"/>
      <point x="800" y="468" type="line"/>
      <point x="656" y="468" type="line"/>
      <point x="625" y="478" type="line"/>
      <point x="209" y="478" type="line"/>
    </contour>
    <contour>
      <point x="146" y="700" type="line"/>
      <point x="254" y="700" type="line"/>
      <point x="254" y="0" type="line"/>
      <point x="146" y="0" type="line"/>
    </contour>
    <contour>
      <point x="603" y="700" type="line"/>
      <point x="711" y="700" type="line"/>
      <point x="711" y="0" type="line"/>
      <point x="603" y="0" type="line"/>
    </contour>
    <contour>
      <point x="193" y="297" type="line"/>
      <point x="193" y="401" type="line"/>
      <point x="651" y="401" type="line"/>
      <point x="651" y="297" type="line"/>
    </contour>
  </outline>
</glyph>
<glyph name="kgreenlandic" format="2">
  <advance width="556"/>
  <unicode hex="0138"/>
  <anchor x="295" y="0" name="bottom"/>
  <anchor x="295" y="510" name="top"/>
  <outline>
    <contour>
      <point x="171" y="0" type="line"/>
      <point x="74" y="0" type="line"/>
      <point x="74" y="525" type="line"/>
      <point x="171" y="525" type="line"/>
    </contour>
    <contour>
      <point x="408" y="525" type="line"/>
      <point x="529" y="525" type="line"/>
      <point x="276" y="269" type="line"/>
      <point x="162" y="154" type="line"/>
      <point x="157" y="256" type="line"/>
    </contour>
    <contour>
      <point x="534" y="-1" type="line"/>
      <point x="411" y="0" type="line"/>
      <point x="218" y="272" type="line"/>
      <point x="287" y="319" type="line"/>
    </contour>
  </outline>
</glyph>
<glyph name="lslash" format="2">
  <advance width="253"/>
  <unicode hex="0142"/>
  <note>
lslash
</note>
  <outline>
    <contour>
      <point x="175" y="0" type="line"/>
      <point x="72" y="0" type="line"/>
      <point x="72" y="740" type="line"/>
      <point x="175" y="740" type="line"/>
    </contour>
    <contour>
      <point x="31" y="292" type="line"/>
      <point x="-3" y="369" type="line"/>
      <point x="220" y="468" type="line"/>
      <point x="256" y="394" type="line"/>
    </contour>
  </outline>
</glyph>
<glyph name="Eng" format="2">
  <advance width="793"/>
  <unicode hex="014A"/>
  <note>
Eng
</note>
  <outline>
    <contour>
      <point x="587" y="76" type="line"/>
      <point x="596" y="0" type="line"/>
      <point x="175" y="552" type="line"/>
      <point x="186" y="566" type="line"/>
      <point x="188" y="543"/>
      <point x="197" y="451"/>
      <point x="199" y="428" type="qcurve" smooth="yes"/>
      <point x="203" y="387"/>
      <point x="206" y="320"/>
      <point x="206" y="291" type="qcurve"/>
      <point x="206" y="0" type="line"/>
      <point x="98" y="0" type="line"/>
      <point x="98" y="700" type="line"/>
      <point x="195" y="700" type="line"/>
      <point x="623" y="127" type="line"/>
      <point x="607" y="118" type="line"/>
      <point x="597" y="180"/>
      <point x="587" y="360"/>
      <point x="587" y="470" type="qcurve"/>
      <point x="587" y="700" type="line"/>
      <point x="614" y="700"/>
      <point x="668" y="700"/>
      <point x="695" y="700" type="qcurve"/>
      <point x="695" y="58" type="line"/>
      <point x="695" y="-24" type="line" smooth="yes"/>
      <point x="695" y="-102"/>
      <point x="593" y="-197"/>
      <point x="510" y="-197" type="qcurve"/>
      <point x="471" y="-118" type="line"/>
      <point x="529" y="-118"/>
      <point x="587" y="-58"/>
      <point x="587" y="1" type="qcurve"/>
    </contour>
  </outline>
</glyph>
<glyph name="eng" format="2">
  <advance width="595"/>
  <unicode hex="014B"/>
  <note>
eng
</note>
  <anchor x="286" y="0" name="bottom"/>
  <anchor x="295" y="510" name="top"/>
  <outline>
    <contour>
      <point x="424" y="1" type="line"/>
      <point x="527" y="25" type="line"/>
      <point x="527" y="-24" type="line" smooth="yes"/>
      <point x="527" y="-101"/>
      <point x="427" y="-197"/>
      <point x="347" y="-197" type="qcurve"/>
      <point x="308" y="-118" type="line"/>
      <point x="365.0" y="-118.0"/>
      <point x="422.99145552066636" y="-58.495579801349486"/>
      <point x="424" y="0" type="qcurve"/>
    </contour>
    <component base="n"/>
  </outline>
</glyph>
<glyph name="jdotless" format="2">
  <advance width="263"/>
  <unicode hex="0237"/>
  <note>
dotlessj
</note>
  <anchor x="151" y="0" name="bottom"/>
  <anchor x="138" y="531" name="top"/>
  <outline>
    <contour>
      <point x="188" y="525" type="line"/>
      <point x="188" y="-24" type="line" smooth="yes"/>
      <point x="188" y="-101"/>
      <point x="88" y="-197"/>
      <point x="8" y="-197" type="qcurve"/>
      <point x="-31" y="-118" type="line"/>
      <point x="27" y="-118"/>
      <point x="85" y="-58"/>
      <point x="85" y="1" type="qcurve"/>
      <point x="85" y="525" type="line"/>
    </contour>
  </outline>
</glyph>
<glyph name="ogonek" format="2">
  <advance width="295"/>
  <unicode hex="02DB"/>
  <outline>
    <contour>
      <point x="238" y="-164"/>
      <point x="175" y="-201"/>
      <point x="139" y="-201" type="qcurve" smooth="yes"/>
      <point x="96" y="-201"/>
      <point x="30" y="-140"/>
      <point x="30" y="-98" type="qcurve"/>
      <point x="30" y="-48"/>
      <point x="113" y="30"/>
      <point x="185" y="50" type="qcurve"/>
      <point x="185" y="18" type="line"/>
      <point x="229" y="-1" type="line"/>
      <point x="185" y="-11"/>
      <point x="121" y="-61"/>
      <point x="121" y="-88" type="qcurve"/>
      <point x="121" y="-104"/>
      <point x="140" y="-124"/>
      <point x="155" y="-124" type="qcurve" smooth="yes"/>
      <point x="166" y="-124"/>
      <point x="184" y="-111"/>
      <point x="192" y="-99" type="qcurve"/>
      <point x="248" y="-139" type="line"/>
    </contour>
  </outline>
</glyph>
<glyph name="tilde" format="2">
  <advance width="421"/>
  <unicode hex="02DC"/>
  <outline>
    <contour>
      <point x="123" y="617" type="qcurve"/>
      <point x="50" y="627" type="line"/>
      <point x="52" y="679"/>
      <point x="114" y="748"/>
      <point x="160" y="748" type="qcurve" smooth="yes"/>
      <point x="179" y="748"/>
      <point x="212" y="732"/>
      <point x="234" y="709" type="qcurve" smooth="yes"/>
      <point x="249" y="694"/>
      <point x="263" y="686"/>
      <point x="270" y="686" type="qcurve"/>
      <point x="283" y="686"/>
      <point x="299" y="715"/>
      <point x="298" y="736" type="qcurve"/>
      <point x="371" y="720" type="line"/>
      <point x="368" y="676"/>
      <point x="312" y="614"/>
      <point x="270" y="614" type="qcurve"/>
      <point x="247" y="614"/>
      <point x="209" y="632"/>
      <point x="185" y="656" type="qcurve" smooth="yes"/>
      <point x="173" y="668"/>
      <point x="163" y="675"/>
      <point x="158" y="675" type="qcurve" smooth="yes"/>
      <point x="141" y="675"/>
      <point x="123" y="646"/>
    </contour>
  </outline>
</glyph>
<glyph name="dotaccentcomb" format="2">
  <unicode hex="0307"/>
  <outline>
    <contour>
      <point x="175" y="690" type="qcurve" smooth="yes"/>
      <point x="175" y="661"/>
      <point x="138" y="625"/>
      <point x="106" y="625" type="qcurve" smooth="yes"/>
      <point x="73" y="625"/>
      <point x="37" y="659"/>
      <point x="37" y="690" type="qcurve" smooth="yes"/>
      <point x="37" y="719"/>
      <point x="74" y="755"/>
      <point x="106" y="755" type="qcurve" smooth="yes"/>
      <point x="139" y="755"/>
      <point x="175" y="721"/>
    </contour>
  </outline>
</glyph>
<glyph name="strokeshortcomb" format="2">
  <unicode hex="0335"/>
  <outline>
    <contour>
      <point x="318" y="251" type="line"/>
      <point x="50" y="251" type="line"/>
      <point x="50" y="341" type="line"/>
      <point x="318" y="341" type="line"/>
    </contour>
  </outline>
</glyph>
<glyph name="hah-ar" format="2">
  <advance width="739"/>
  <unicode hex="062D"/>
  <outline>
    <contour>
      <point x="452" y="-354" type="qcurve" smooth="yes"/>
      <point x="529" y="-354"/>
      <point x="652" y="-332"/>
      <point x="726" y="-304" type="qcurve"/>
      <point x="679" y="-270" type="line"/>
      <point x="732" y="-442" type="line"/>
      <point x="753" y="-385" type="line"/>
      <point x="659" y="-424"/>
      <point x="508" y="-456"/>
      <point x="419" y="-456" type="qcurve" smooth="yes"/>
      <point x="254" y="-456"/>
      <point x="60" y="-309"/>
      <point x="60" y="-181" type="qcurve" smooth="yes"/>
      <point x="60" y="-32"/>
      <point x="284" y="171"/>
      <point x="537" y="251" type="qcurve"/>
      <point x="614" y="195" type="line"/>
      <point x="602" y="195"/>
      <point x="559" y="212"/>
      <point x="503" y="241" type="qcurve" smooth="yes"/>
      <point x="413" y="288"/>
      <point x="322" y="319"/>
      <point x="288" y="319" type="qcurve" smooth="yes"/>
      <point x="240" y="319"/>
      <point x="159" y="265"/>
      <point x="126" y="211" type="qcurve"/>
      <point x="66" y="255" type="line"/>
      <point x="100" y="328"/>
      <point x="231" y="421"/>
      <point x="305" y="421" type="qcurve" smooth="yes"/>
      <point x="346" y="421"/>
      <point x="441" y="389"/>
      <point x="532" y="339" type="qcurve" smooth="yes"/>
      <point x="598" y="302"/>
      <point x="656" y="280"/>
      <point x="677" y="280" type="qcurve"/>
      <point x="677" y="195" type="line"/>
      <point x="381" y="111"/>
      <point x="164" y="-49"/>
      <point x="164" y="-166" type="qcurve" smooth="yes"/>
      <point x="164" y="-258"/>
      <point x="311" y="-354"/>
    </contour>
  </outline>
</glyph>
<glyph name="sad-ar" format="2">
  <advance width="1432"/>
  <unicode hex="0635"/>
  <outline>
    <contour>
      <point x="1345" y="0" type="qcurve"/>
      <point x="743" y="0" type="line"/>
      <point x="743" y="102" type="line"/>
      <point x="1262" y="102" type="line"/>
      <point x="1264" y="220"/>
      <point x="1193" y="334"/>
      <point x="1118" y="334" type="qcurve" smooth="yes"/>
      <point x="1034" y="334"/>
      <point x="859" y="169"/>
      <point x="777" y="12" type="qcurve"/>
      <point x="707" y="94" type="line"/>
      <point x="813" y="268"/>
      <point x="1021" y="438"/>
      <point x="1130" y="438" type="qcurve" smooth="yes"/>
      <point x="1270" y="438"/>
      <point x="1388" y="193"/>
    </contour>
    <component base="noonghunna-ar.fina"/>
  </outline>
</glyph>
<glyph name="fatha-ar" format="2">
  <unicode hex="064E"/>
  <outline>
    <contour>
      <point x="20" y="681" type="line"/>
      <point x="273" y="747" type="line"/>
      <point x="287" y="693" type="line"/>
      <point x="34" y="627" type="line"/>
    </contour>
  </outline>
</glyph>
<glyph name="damma-ar" format="2">
  <unicode hex="064F"/>
  <outline>
    <contour>
      <point x="136" y="774" type="qcurve" smooth="yes"/>
      <point x="150" y="774"/>
      <point x="168" y="777"/>
      <point x="178" y="781" type="qcurve"/>
      <point x="201" y="741" type="line"/>
      <point x="187" y="733"/>
      <point x="151" y="724"/>
      <point x="133" y="724" type="qcurve" smooth="yes"/>
      <point x="94" y="724"/>
      <point x="47" y="764"/>
      <point x="47" y="797" type="qcurve" smooth="yes"/>
      <point x="47" y="836"/>
      <point x="97" y="891"/>
      <point x="133" y="891" type="qcurve" smooth="yes"/>
      <point x="174" y="891"/>
      <point x="221" y="826"/>
      <point x="221" y="771" type="qcurve" smooth="yes"/>
      <point x="221" y="707"/>
      <point x="158" y="635"/>
      <point x="101" y="635" type="qcurve" smooth="yes"/>
      <point x="77" y="635"/>
      <point x="36" y="651"/>
      <point x="20" y="666" type="qcurve"/>
      <point x="47" y="703" type="line"/>
      <point x="57" y="695"/>
      <point x="87" y="685"/>
      <point x="101" y="685" type="qcurve" smooth="yes"/>
      <point x="135" y="685"/>
      <point x="176" y="728"/>
      <point x="176" y="765" type="qcurve" smooth="yes"/>
      <point x="176" y="799"/>
      <point x="152" y="841"/>
      <point x="133" y="841" type="qcurve" smooth="yes"/>
      <point x="118" y="841"/>
      <point x="97" y="820"/>
      <point x="97" y="805" type="qcurve" smooth="yes"/>
      <point x="97" y="791"/>
      <point x="118" y="774"/>
    </contour>
  </outline>
</glyph>
<glyph name="behDotless-ar" format="2">
  <advance width="902"/>
  <unicode hex="066E"/>
  <outline>
    <contour>
      <point x="694" y="102" type="line"/>
      <point x="771" y="0" type="line"/>
      <point x="292" y="0" type="line" smooth="yes"/>
      <point x="169" y="0"/>
      <point x="30" y="107"/>
      <point x="30" y="202" type="qcurve" smooth="yes"/>
      <point x="30" y="253"/>
      <point x="62" y="359"/>
      <point x="94" y="413" type="qcurve"/>
      <point x="174" y="377" type="line"/>
      <point x="153" y="331"/>
      <point x="134" y="260"/>
      <point x="134" y="226" type="qcurve" smooth="yes"/>
      <point x="134" y="162"/>
      <point x="225" y="102"/>
      <point x="324" y="102" type="qcurve"/>
    </contour>
    <component base="behDotless-ar.init" xOffset="561"/>
  </outline>
</glyph>
<glyph name="noonghunna-ar" format="2">
  <advance width="700"/>
  <unicode hex="06BA"/>
  <outline>
    <contour>
      <point x="155" y="171"/>
      <point x="131" y="75"/>
      <point x="131" y="38" type="qcurve" smooth="yes"/>
      <point x="131" y="-42"/>
      <point x="237" y="-128"/>
      <point x="334" y="-128" type="qcurve" smooth="yes"/>
      <point x="419" y="-128"/>
      <point x="535" y="-43"/>
      <point x="535" y="23" type="qcurve" smooth="yes"/>
      <point x="535" y="66"/>
      <point x="502" y="176"/>
      <point x="468" y="246" type="qcurve"/>
      <point x="548" y="342" type="line"/>
      <point x="589" y="266"/>
      <point x="630" y="119"/>
      <point x="630" y="50" type="qcurve" smooth="yes"/>
      <point x="630" y="-78"/>
      <point x="462" y="-230"/>
      <point x="321" y="-230" type="qcurve" smooth="yes"/>
      <point x="183" y="-230"/>
      <point x="30" y="-94"/>
      <point x="30" y="23" type="qcurve" smooth="yes"/>
      <point x="30" y="66"/>
      <point x="61" y="187"/>
      <point x="89" y="250" type="qcurve"/>
      <point x="33" y="228" type="line"/>
      <point x="210" y="169" type="line"/>
      <point x="177" y="223" type="line"/>
    </contour>
  </outline>
</glyph>
<glyph name="perthousand" format="2">
  <advance width="1190"/>
  <unicode hex="2030"/>
  <note>
perthousand
</note>
  <outline>
    <contour>
      <point x="347" y="518" type="qcurve"/>
      <point x="347" y="438"/>
      <point x="259" y="329"/>
      <point x="193" y="329" type="qcurve"/>
      <point x="125" y="329"/>
      <point x="40" y="436"/>
      <point x="40" y="518" type="qcurve"/>
      <point x="40" y="601"/>
      <point x="126" y="709"/>
      <point x="194" y="709" type="qcurve"/>
      <point x="262" y="709"/>
      <point x="347" y="601"/>
    </contour>
    <contour>
      <point x="123" y="518" type="qcurve"/>
      <point x="123" y="466"/>
      <point x="161" y="404"/>
      <point x="194" y="404" type="qcurve"/>
      <point x="226" y="404"/>
      <point x="263" y="465"/>
      <point x="263" y="518" type="qcurve"/>
      <point x="263" y="571"/>
      <point x="226" y="633"/>
      <point x="193" y="633" type="qcurve"/>
      <point x="161" y="633"/>
      <point x="123" y="570"/>
    </contour>
    <contour>
      <point x="789" y="180" type="qcurve"/>
      <point x="789" y="100"/>
      <point x="702" y="-9"/>
      <point x="636" y="-9" type="qcurve"/>
      <point x="569" y="-9"/>
      <point x="482" y="99"/>
      <point x="482" y="180" type="qcurve"/>
      <point x="482" y="263"/>
      <point x="568" y="371"/>
      <point x="636" y="371" type="qcurve"/>
      <point x="704" y="371"/>
      <point x="789" y="263"/>
    </contour>
    <contour>
      <point x="565" y="180" type="qcurve"/>
      <point x="565" y="128"/>
      <point x="603" y="65"/>
      <point x="636" y="65" type="qcurve"/>
      <point x="668" y="65"/>
      <point x="706" y="128"/>
      <point x="706" y="180" type="qcurve"/>
      <point x="706" y="232"/>
      <point x="668" y="295"/>
      <point x="636" y="295" type="qcurve"/>
      <point x="603" y="295"/>
      <point x="565" y="233"/>
    </contour>
    <contour>
      <point x="1140" y="180" type="qcurve"/>
      <point x="1140" y="100"/>
      <point x="1053" y="-9"/>
      <point x="987" y="-9" type="qcurve"/>
      <point x="920" y="-9"/>
      <point x="833" y="99"/>
      <point x="833" y="180" type="qcurve"/>
      <point x="833" y="263"/>
      <point x="919" y="371"/>
      <point x="987" y="371" type="qcurve"/>
      <point x="1055" y="371"/>
      <point x="1140" y="264"/>
    </contour>
    <contour>
      <point x="916" y="180" type="qcurve"/>
      <point x="916" y="128"/>
      <point x="954" y="65"/>
      <point x="987" y="65" type="qcurve"/>
      <point x="1020" y="65"/>
      <point x="1057" y="127"/>
      <point x="1057" y="180" type="qcurve"/>
      <point x="1057" y="233"/>
      <point x="1020" y="295"/>
      <point x="987" y="295" type="qcurve"/>
      <point x="954" y="295"/>
      <point x="916" y="233"/>
    </contour>
    <component base="fraction" xOffset="118"/>
  </outline>
</glyph>
<glyph name="colonsign" format="2">
  <advance width="637"/>
  <unicode hex="20A1"/>
  <outline>
    <contour>
      <point x="105" y="-106" type="line"/>
      <point x="28" y="-70" type="line"/>
      <point x="460" y="803" type="line"/>
      <point x="533" y="773" type="line"/>
    </contour>
    <contour>
      <point x="265" y="-139" type="line"/>
      <point x="188" y="-103" type="line"/>
      <point x="620" y="770" type="line"/>
      <point x="693" y="740" type="line"/>
    </contour>
    <contour>
      <point x="576" y="174" type="qcurve"/>
      <point x="630" y="86" type="line"/>
      <point x="595" y="45"/>
      <point x="456" y="-10"/>
      <point x="382" y="-10" type="qcurve" smooth="yes"/>
      <point x="236" y="-10"/>
      <point x="48" y="191"/>
      <point x="48" y="350" type="qcurve" smooth="yes"/>
      <point x="48" y="500"/>
      <point x="248" y="706"/>
      <point x="391" y="706" type="qcurve" smooth="yes"/>
      <point x="467" y="706"/>
      <point x="606" y="638"/>
      <point x="643" y="585" type="qcurve"/>
      <point x="571" y="510" type="line"/>
      <point x="528" y="554"/>
      <point x="438" y="598"/>
      <point x="391" y="598" type="qcurve" smooth="yes"/>
      <point x="293" y="598"/>
      <point x="158" y="458"/>
      <point x="158" y="350" type="qcurve" smooth="yes"/>
      <point x="158" y="235"/>
      <point x="292" y="99"/>
      <point x="400" y="99" type="qcurve" smooth="yes"/>
      <point x="450" y="99"/>
      <point x="542" y="139"/>
    </contour>
  </outline>
</glyph>
<glyph name="won" format="2">
  <advance width="999"/>
  <unicode hex="20A9"/>
  <anchor x="500" y="0" name="bottom"/>
  <anchor x="500" y="700" name="top"/>
  <outline>
    <contour>
      <point x="157" y="322" type="line"/>
      <point x="24" y="322" type="line"/>
      <point x="24" y="415" type="line"/>
      <point x="143" y="415" type="line"/>
      <point x="176" y="401" type="line"/>
      <point x="779" y="401" type="line"/>
      <point x="815" y="415" type="line"/>
      <point x="928" y="415" type="line"/>
      <point x="928" y="322" type="line"/>
      <point x="792" y="322" type="line"/>
      <point x="743" y="336" type="line"/>
      <point x="205" y="336" type="line"/>
    </contour>
    <component base="W" xOffset="3"/>
  </outline>
</glyph>
<glyph name="peso" format="2">
  <advance width="775"/>
  <unicode hex="20B1"/>
  <outline>
    <contour>
      <point x="203" y="393" type="line"/>
      <point x="90" y="393" type="line"/>
      <point x="90" y="467" type="line"/>
      <point x="206" y="467" type="line"/>
      <point x="229" y="457" type="line"/>
      <point x="553" y="457" type="line"/>
      <point x="588" y="467" type="line"/>
      <point x="705" y="467" type="line"/>
      <point x="705" y="393" type="line"/>
      <point x="583" y="393" type="line"/>
      <point x="551" y="407" type="line"/>
      <point x="227" y="407" type="line"/>
    </contour>
    <contour>
      <point x="204" y="508" type="line"/>
      <point x="90" y="508" type="line"/>
      <point x="90" y="580" type="line"/>
      <point x="209" y="580" type="line"/>
      <point x="231" y="566" type="line"/>
      <point x="547" y="566" type="line"/>
      <point x="584" y="580" type="line"/>
      <point x="705" y="580" type="line"/>
      <point x="705" y="508" type="line"/>
      <point x="589" y="508" type="line"/>
      <point x="553" y="516" type="line"/>
      <point x="230" y="516" type="line"/>
    </contour>
    <contour>
      <point x="178" y="700" type="line"/>
      <point x="463" y="700" type="line" smooth="yes"/>
      <point x="548" y="700"/>
      <point x="669" y="575"/>
      <point x="669" y="485" type="qcurve" smooth="yes"/>
      <point x="669" y="395"/>
      <point x="548" y="268"/>
      <point x="463" y="268" type="qcurve"/>
      <point x="278" y="268" type="line"/>
      <point x="286" y="282" type="line"/>
      <point x="286" y="0" type="line"/>
      <point x="178" y="0" type="line"/>
    </contour>
    <contour>
      <point x="277" y="372" type="line"/>
      <point x="461" y="372" type="line" smooth="yes"/>
      <point x="501" y="372"/>
      <point x="559" y="439"/>
      <point x="559" y="485" type="qcurve" smooth="yes"/>
      <point x="559" y="531"/>
      <point x="501" y="596"/>
      <point x="461" y="596" type="qcurve"/>
      <point x="277" y="596" type="line"/>
      <point x="286" y="611" type="line"/>
      <point x="286" y="358" type="line"/>
    </contour>
  </outline>
</glyph>
<glyph name="liraTurkish" format="2">
  <advance width="609"/>
  <unicode hex="20BA"/>
  <outline>
    <contour>
      <point x="551" y="115"/>
      <point x="352" y="-10"/>
      <point x="237" y="-10" type="qcurve"/>
      <point x="205" y="-10"/>
      <point x="167" y="-5"/>
      <point x="156" y="0" type="qcurve"/>
      <point x="156" y="700" type="line"/>
      <point x="254" y="700" type="line"/>
      <point x="255" y="52" type="line"/>
      <point x="244" y="87" type="line"/>
      <point x="320" y="87"/>
      <point x="446" y="158"/>
      <point x="468" y="219" type="qcurve"/>
      <point x="560" y="193" type="line"/>
    </contour>
    <contour>
      <point x="67" y="336" type="line"/>
      <point x="28" y="404" type="line"/>
      <point x="368" y="595" type="line"/>
      <point x="412" y="528" type="line"/>
    </contour>
    <contour>
      <point x="87" y="176" type="line"/>
      <point x="48" y="244" type="line"/>
      <point x="388" y="435" type="line"/>
      <point x="432" y="368" type="line"/>
    </contour>
  </outline>
</glyph>
<glyph name="manat" format="2">
  <advance width="760"/>
  <unicode hex="20BC"/>
  <anchor x="380" y="694" name="bottom"/>
  <anchor x="97" y="684" name="ogonek"/>
  <anchor x="380" y="-6" name="top"/>
  <anchor x="238" y="-14" name="topright"/>
  <outline>
    <contour>
      <point x="416" y="801" type="line"/>
      <point x="416" y="254" type="line"/>
      <point x="319" y="254" type="line"/>
      <point x="319" y="801" type="line"/>
    </contour>
    <contour>
      <point x="201" y="-7" type="line"/>
      <point x="98" y="-7" type="line"/>
      <point x="98" y="425" type="line"/>
      <point x="98" y="544"/>
      <point x="258" y="700"/>
      <point x="380" y="700" type="qcurve"/>
      <point x="502" y="700"/>
      <point x="662" y="544"/>
      <point x="662" y="425" type="qcurve"/>
      <point x="662" y="-7" type="line"/>
      <point x="554" y="-7" type="line"/>
      <point x="554" y="416" type="line"/>
      <point x="554" y="492"/>
      <point x="451" y="596"/>
      <point x="380" y="596" type="qcurve"/>
      <point x="305" y="596"/>
      <point x="201" y="492"/>
      <point x="201" y="416" type="qcurve"/>
    </contour>
  </outline>
</glyph>
<glyph name="numero" format="2">
  <advance width="1177"/>
  <unicode hex="2116"/>
  <outline>
    <contour>
      <point x="1142" y="193" type="line"/>
      <point x="796" y="193" type="line"/>
      <point x="796" y="282" type="line"/>
      <point x="1142" y="282" type="line"/>
    </contour>
    <contour>
      <point x="959" y="708" type="qcurve"/>
      <point x="1033" y="708"/>
      <point x="1133" y="606"/>
      <point x="1133" y="531" type="qcurve"/>
      <point x="1133" y="457"/>
      <point x="1034" y="358"/>
      <point x="959" y="358" type="qcurve"/>
      <point x="885" y="358"/>
      <point x="788" y="456"/>
      <point x="788" y="531" type="qcurve"/>
      <point x="788" y="607"/>
      <point x="886" y="708"/>
    </contour>
    <contour>
      <point x="959" y="441" type="qcurve"/>
      <point x="996" y="441"/>
      <point x="1042" y="491"/>
      <point x="1042" y="531" type="qcurve"/>
      <point x="1042" y="573"/>
      <point x="996" y="625"/>
      <point x="959" y="625" type="qcurve"/>
      <point x="923" y="625"/>
      <point x="878" y="573"/>
      <point x="878" y="531" type="qcurve"/>
      <point x="878" y="491"/>
      <point x="923" y="441"/>
    </contour>
    <contour>
      <point x="587" y="470" type="qcurve"/>
      <point x="587" y="700" type="line"/>
      <point x="695" y="700" type="line"/>
      <point x="695" y="0" type="line"/>
      <point x="596" y="0" type="line"/>
      <point x="175" y="552" type="line"/>
      <point x="186" y="566" type="line"/>
      <point x="192" y="502"/>
      <point x="206" y="336"/>
      <point x="206" y="291" type="qcurve"/>
      <point x="206" y="0" type="line"/>
      <point x="98" y="0" type="line"/>
      <point x="98" y="700" type="line"/>
      <point x="195" y="700" type="line"/>
      <point x="623" y="127" type="line"/>
      <point x="607" y="118" type="line"/>
      <point x="597" y="180"/>
      <point x="587" y="360"/>
    </contour>
  </outline>
</glyph>
<glyph name="hah-ar.fina" format="2">
  <advance width="725"/>
  <unicode hex="FEA2"/>
  <anchor x="419" y="-456" name="bottom"/>
  <anchor x="420" y="-124" name="center"/>
  <anchor x="305" y="421" name="top"/>
  <outline>
    <contour>
      <point x="598" y="0"/>
      <point x="498" y="63"/>
      <point x="477" y="133" type="qcurve"/>
      <point x="547" y="167" type="line"/>
      <point x="563" y="131"/>
      <point x="629" y="102"/>
      <point x="692" y="102" type="qcurve"/>
      <point x="725" y="102" type="line"/>
      <point x="725" y="0" type="line"/>
      <point x="689" y="0" type="line" smooth="yes"/>
    </contour>
    <component base="hah-ar"/>
  </outline>
</glyph>
<glyph name="hah-ar.init" format="2">
  <advance width="727"/>
  <unicode hex="FEA3"/>
  <anchor x="320" y="0" name="bottom"/>
  <anchor x="250" y="438" name="top"/>
  <outline>
    <contour>
      <point x="236" y="334" type="qcurve" smooth="yes"/>
      <point x="185" y="334"/>
      <point x="112" y="266"/>
      <point x="87" y="198" type="qcurve"/>
      <point x="153" y="229" type="line"/>
      <point x="-13" y="313" type="line"/>
      <point x="21" y="243" type="line"/>
      <point x="56" y="339"/>
      <point x="172" y="438"/>
      <point x="250" y="438" type="qcurve" smooth="yes"/>
      <point x="293" y="438"/>
      <point x="387" y="404"/>
      <point x="477" y="350" type="qcurve" smooth="yes"/>
      <point x="562" y="299"/>
      <point x="649" y="267"/>
      <point x="687" y="267" type="qcurve"/>
      <point x="687" y="177" type="line"/>
      <point x="661" y="177"/>
      <point x="591" y="152"/>
      <point x="509" y="108" type="qcurve" smooth="yes"/>
      <point x="433" y="68"/>
      <point x="332" y="32"/>
      <point x="274" y="21" type="qcurve" smooth="yes"/>
      <point x="220" y="10"/>
      <point x="95" y="0"/>
      <point x="23" y="0" type="qcurve"/>
      <point x="0" y="0" type="line"/>
      <point x="0" y="102" type="line"/>
      <point x="29" y="102" type="line" smooth="yes"/>
      <point x="172" y="102"/>
      <point x="364" y="138"/>
      <point x="462" y="191" type="qcurve" smooth="yes"/>
      <point x="543" y="234"/>
      <point x="644" y="267"/>
      <point x="687" y="267" type="qcurve"/>
      <point x="687" y="177" type="line"/>
      <point x="644" y="177"/>
      <point x="544" y="209"/>
      <point x="445" y="260" type="qcurve" smooth="yes"/>
      <point x="356" y="306"/>
      <point x="270" y="334"/>
    </contour>
  </outline>
</glyph>
<glyph name="meem-ar.init" format="2">
  <advance width="604"/>
  <unicode hex="FEE3"/>
  <outline>
    <contour>
      <point x="120" y="46" type="qcurve" smooth="yes"/>
      <point x="95" y="23"/>
      <point x="36" y="0"/>
      <point x="2" y="0" type="qcurve"/>
      <point x="0" y="0" type="line"/>
      <point x="0" y="102" type="line"/>
      <point x="2" y="102" type="line"/>
      <point x="32" y="102"/>
      <point x="76" y="139"/>
      <point x="106" y="193" type="qcurve" smooth="yes"/>
      <point x="141" y="256"/>
      <point x="178" y="311"/>
      <point x="196" y="331" type="qcurve" smooth="yes"/>
      <point x="230" y="368"/>
      <point x="301" y="405"/>
      <point x="339" y="405" type="qcurve" smooth="yes"/>
      <point x="452" y="405"/>
      <point x="556" y="179"/>
      <point x="520" y="16" type="qcurve"/>
      <point x="400" y="-39"/>
      <point x="170" y="19"/>
      <point x="112" y="121" type="qcurve"/>
      <point x="175" y="173" type="line"/>
      <point x="210" y="120"/>
      <point x="356" y="71"/>
      <point x="439" y="85" type="qcurve"/>
      <point x="447" y="175"/>
      <point x="385" y="301"/>
      <point x="331" y="301" type="qcurve" smooth="yes"/>
      <point x="300" y="301"/>
      <point x="239" y="234"/>
      <point x="194" y="152" type="qcurve" smooth="yes"/>
      <point x="164" y="98"/>
      <point x="136" y="60"/>
    </contour>
  </outline>
</glyph>
<glyph name="Iogonek.ss01" format="2">
  <advance width="327"/>
  <note>
Iogonek
</note>
  <outline>
    <contour>
      <point x="208" y="700" type="qcurve"/>
      <point x="208" y="0" type="line"/>
      <point x="100" y="0" type="line"/>
      <point x="100" y="700" type="line"/>
      <point x="127" y="700"/>
      <point x="181" y="700"/>
    </contour>
    <contour>
      <point x="217" y="-183"/>
      <point x="154" y="-220"/>
      <point x="118" y="-220" type="qcurve" smooth="yes"/>
      <point x="75" y="-220"/>
      <point x="9" y="-159"/>
      <point x="9" y="-117" type="qcurve" smooth="yes"/>
      <point x="9.0" y="-60.58108108108108"/>
      <point x="91.17510671208144" y="29.77086297557818"/>
      <point x="164" y="50" type="qcurve"/>
      <point x="208" y="43" type="line"/>
      <point x="208" y="-1" type="line"/>
      <point x="163.3356433297994" y="-11.150990152318316"/>
      <point x="100.0" y="-74.10344827586206"/>
      <point x="100" y="-107" type="qcurve" smooth="yes"/>
      <point x="100" y="-123"/>
      <point x="119" y="-143"/>
      <point x="134" y="-143" type="qcurve" smooth="yes"/>
      <point x="145" y="-143"/>
      <point x="163" y="-130"/>
      <point x="171" y="-118" type="qcurve"/>
      <point x="227" y="-158" type="line"/>
    </contour>
  </outline>
</glyph>
<glyph name="a.ss01" format="2">
  <advance width="534"/>
  <note>
a
</note>
  <anchor x="277" y="-13" name="bottom"/>
  <anchor x="466" y="10" name="ogonek"/>
  <anchor x="279" y="530" name="top"/>
  <outline>
    <contour>
      <point x="108" y="486"/>
      <point x="217" y="536"/>
      <point x="280" y="536" type="qcurve"/>
      <point x="370" y="536"/>
      <point x="476" y="446"/>
      <point x="476" y="364" type="qcurve"/>
      <point x="476" y="0" type="line"/>
      <point x="383" y="0" type="line"/>
      <point x="383" y="342" type="line"/>
      <point x="383" y="386"/>
      <point x="320" y="441"/>
      <point x="272" y="441" type="qcurve"/>
      <point x="228" y="441"/>
      <point x="157" y="405"/>
      <point x="128" y="368" type="qcurve"/>
      <point x="61" y="435" type="line"/>
    </contour>
    <contour>
      <point x="284" y="319" type="qcurve"/>
      <point x="430" y="319" type="line"/>
      <point x="421" y="237" type="line"/>
      <point x="271" y="237" type="line" smooth="yes"/>
      <point x="210" y="237"/>
      <point x="145" y="192"/>
      <point x="145" y="151" type="qcurve"/>
      <point x="145" y="118"/>
      <point x="193" y="78"/>
      <point x="230" y="78" type="qcurve"/>
      <point x="284" y="78"/>
      <point x="375" y="133"/>
      <point x="396" y="174" type="qcurve"/>
      <point x="420" y="107" type="line"/>
      <point x="388" y="55"/>
      <point x="284" y="-10"/>
      <point x="226" y="-10" type="qcurve"/>
      <point x="150" y="-10"/>
      <point x="48" y="77"/>
      <point x="48" y="149" type="qcurve"/>
      <point x="48" y="233"/>
      <point x="167" y="319"/>
    </contour>
  </outline>
</glyph>
<glyph name="acutecomb.case" format="2">
  <anchor x="77" y="515" name="_top"/>
  <anchor x="125" y="703" name="top"/>
  <outline>
    <contour>
      <point x="225" y="659" type="line"/>
      <point x="51" y="565" type="line"/>
      <point x="17" y="616" type="line"/>
      <point x="160" y="741" type="line"/>
    </contour>
  </outline>
</glyph>
<glyph name="behDotless-ar.init" format="2">
  <advance width="341"/>
  <outline>
    <contour>
      <point x="0" y="0" type="line"/>
      <point x="0" y="102" type="line"/>
      <point x="179" y="102" type="line"/>
      <point x="179" y="158"/>
      <point x="146" y="268"/>
      <point x="104" y="346" type="qcurve"/>
      <point x="195" y="438" type="line"/>
      <point x="262" y="292"/>
      <point x="278" y="98"/>
      <point x="243" y="0" type="qcurve"/>
    </contour>
  </outline>
</glyph>
<glyph name="commaaccentcomb.case" format="2">
  <anchor x="144" y="0" name="_bottom"/>
  <anchor x="122" y="-289" name="bottom"/>
  <outline>
    <contour>
      <point x="99" y="-243" type="qcurve"/>
      <point x="75" y="-201" type="line"/>
      <point x="96" y="-196"/>
      <point x="129" y="-164"/>
      <point x="129" y="-149" type="qcurve" smooth="yes"/>
      <point x="129" y="-143"/>
      <point x="122" y="-135"/>
      <point x="110" y="-132" type="qcurve" smooth="yes"/>
      <point x="92" y="-127"/>
      <point x="80" y="-109"/>
      <point x="80" y="-94" type="qcurve"/>
      <point x="80" y="-72"/>
      <point x="116" y="-45"/>
      <point x="145" y="-45" type="qcurve"/>
      <point x="178" y="-45"/>
      <point x="223" y="-87"/>
      <point x="223" y="-122" type="qcurve" smooth="yes"/>
      <point x="223" y="-160"/>
      <point x="155" y="-224"/>
    </contour>
  </outline>
</glyph>
<glyph name="dblgravecomb.case" format="2">
  <anchor x="248" y="490" name="_top"/>
  <anchor x="248" y="709" name="top"/>
  <outline>
    <contour>
      <point x="214" y="594" type="line"/>
      <point x="180" y="553" type="line"/>
      <point x="20" y="637" type="line"/>
      <point x="75" y="709" type="line"/>
    </contour>
    <contour>
      <point x="404" y="594" type="line"/>
      <point x="370" y="553" type="line"/>
      <point x="210" y="637" type="line"/>
      <point x="265" y="709" type="line"/>
    </contour>
  </outline>
</glyph>
<glyph name="dieresiscomb.case" format="2">
  <anchor x="203" y="525" name="_top"/>
  <anchor x="203" y="682" name="top"/>
  <outline>
    <contour>
      <point x="168" y="639" type="qcurve" smooth="yes"/>
      <point x="168" y="610"/>
      <point x="131" y="574"/>
      <point x="99" y="574" type="qcurve" smooth="yes"/>
      <point x="66" y="574"/>
      <point x="30" y="608"/>
      <point x="30" y="639" type="qcurve" smooth="yes"/>
      <point x="30" y="668"/>
      <point x="67" y="704"/>
      <point x="99" y="704" type="qcurve" smooth="yes"/>
      <point x="132" y="704"/>
      <point x="168" y="670"/>
    </contour>
    <contour>
      <point x="374" y="639" type="qcurve" smooth="yes"/>
      <point x="374" y="610"/>
      <point x="337" y="574"/>
      <point x="305" y="574" type="qcurve" smooth="yes"/>
      <point x="272" y="574"/>
      <point x="236" y="608"/>
      <point x="236" y="639" type="qcurve" smooth="yes"/>
      <point x="236" y="668"/>
      <point x="273" y="704"/>
      <point x="305" y="704" type="qcurve" smooth="yes"/>
      <point x="338" y="704"/>
      <point x="374" y="670"/>
    </contour>
  </outline>
</glyph>
<glyph name="dotbelowcomb.case" format="2">
  <anchor x="105" y="0" name="_bottom"/>
  <anchor x="105" y="-194" name="bottom"/>
  <outline>
    <contour>
      <point x="175" y="-126" type="qcurve" smooth="yes"/>
      <point x="175" y="-155"/>
      <point x="138" y="-191"/>
      <point x="106" y="-191" type="qcurve" smooth="yes"/>
      <point x="73" y="-191"/>
      <point x="37" y="-157"/>
      <point x="37" y="-126" type="qcurve" smooth="yes"/>
      <point x="37" y="-97"/>
      <point x="74" y="-61"/>
      <point x="106" y="-61" type="qcurve" smooth="yes"/>
      <point x="139" y="-61"/>
      <point x="175" y="-95"/>
    </contour>
  </outline>
</glyph>
<glyph name="fehDotless-ar.medi" format="2">
  <advance width="571"/>
  <outline>
    <contour>
      <point x="416" y="102" type="line"/>
      <point x="571" y="102" type="line"/>
      <point x="571" y="0" type="line"/>
      <point x="512" y="0" type="line" smooth="yes"/>
      <point x="316" y="0"/>
      <point x="90" y="129"/>
      <point x="90" y="241" type="qcurve" smooth="yes"/>
      <point x="90" y="325"/>
      <point x="209" y="439"/>
      <point x="296" y="439" type="qcurve" smooth="yes"/>
      <point x="382" y="439"/>
      <point x="501" y="324"/>
      <point x="501" y="241" type="qcurve" smooth="yes"/>
      <point x="501" y="128"/>
      <point x="276" y="0"/>
      <point x="80" y="0" type="qcurve"/>
      <point x="0" y="0" type="line"/>
      <point x="0" y="102" type="line"/>
      <point x="171" y="102" type="line"/>
      <point x="210" y="68" type="line"/>
      <point x="301" y="92"/>
      <point x="397" y="178"/>
      <point x="397" y="237" type="qcurve" smooth="yes"/>
      <point x="397" y="279"/>
      <point x="338" y="337"/>
      <point x="296" y="337" type="qcurve" smooth="yes"/>
      <point x="252" y="337"/>
      <point x="194" y="280"/>
      <point x="194" y="237" type="qcurve" smooth="yes"/>
      <point x="194" y="179"/>
      <point x="289" y="93"/>
      <point x="382" y="68" type="qcurve"/>
    </contour>
  </outline>
</glyph>
<glyph name="macroncomb.case" format="2">
  <anchor x="214" y="536" name="_top"/>
  <anchor x="214" y="709" name="top"/>
  <outline>
    <contour>
      <point x="381" y="612" type="line"/>
      <point x="50" y="612" type="line"/>
      <point x="50" y="687" type="line"/>
      <point x="381" y="687" type="line"/>
    </contour>
  </outline>
</glyph>
<glyph name="tildecomb.case" format="2">
  <outline>
    <contour>
      <point x="117" y="581" type="qcurve"/>
      <point x="40" y="581" type="line"/>
      <point x="40" y="633"/>
      <point x="97" y="694"/>
      <point x="146" y="694" type="qcurve" smooth="yes"/>
      <point x="161" y="694"/>
      <point x="195" y="685"/>
      <point x="227" y="671" type="qcurve" smooth="yes"/>
      <point x="252" y="660"/>
      <point x="274" y="654"/>
      <point x="282" y="654" type="qcurve"/>
      <point x="295" y="654"/>
      <point x="308" y="676"/>
      <point x="307" y="694" type="qcurve"/>
      <point x="383" y="694" type="line"/>
      <point x="383" y="645"/>
      <point x="332" y="580"/>
      <point x="291" y="580" type="qcurve"/>
      <point x="274" y="580"/>
      <point x="235" y="590"/>
      <point x="198" y="604" type="qcurve" smooth="yes"/>
      <point x="173" y="614"/>
      <point x="151" y="620"/>
      <point x="144" y="620" type="qcurve" smooth="yes"/>
      <point x="132" y="620"/>
      <point x="117" y="599"/>
    </contour>
  </outline>
</glyph>
<glyph name="twodotshorizontalabove-ar" format="2">
  <advance width="441"/>
  <outline>
    <contour>
      <point x="208" y="627" type="line"/>
      <point x="131" y="545" type="line"/>
      <point x="50" y="627" type="line"/>
      <point x="127" y="709" type="line"/>
    </contour>
    <contour>
      <point x="380" y="627" type="line"/>
      <point x="303" y="545" type="line"/>
      <point x="222" y="627" type="line"/>
      <point x="299" y="709" type="line"/>
    </contour>
  </outline>
</glyph>
